<?xml version="1.0" encoding="utf-8"?>
<!-- Generator: Adobe Illustrator 16.0.0, SVG Export Plug-In . SVG Version: 6.00 Build 0)  -->
<!DOCTYPE svg PUBLIC "-//W3C//DTD SVG 1.0//EN" "http://www.w3.org/TR/2001/REC-SVG-20010904/DTD/svg10.dtd">
<svg version="1.0" id="Layer_1" xmlns="http://www.w3.org/2000/svg" xmlns:xlink="http://www.w3.org/1999/xlink" x="0px" y="0px"
	 width="1108px" height="291px" viewBox="0 0 1108 291" enable-background="new 0 0 1108 291" xml:space="preserve">
<path fill="#FFFFFF" stroke="#ABB5B7" stroke-miterlimit="10" d="M722.342,221.782"/>
<g>
	<path fill="#FFFFFF" stroke="#ABB5B7" stroke-width="18" stroke-miterlimit="10" d="M800.063,101.07
		c19.362,43.783-0.429,95.404-44.208,115.304c-43.78,19.899-94.966,0.537-114.329-43.245c-19.363-43.781,0.43-95.405,44.209-115.303
		C729.512,37.926,780.699,57.289,800.063,101.07z"/>
	<g>
		<g>
			<linearGradient id="SVGID_1_" gradientUnits="userSpaceOnUse" x1="727.5986" y1="115.583" x2="794.7119" y2="115.583">
				<stop  offset="0" style="stop-color:#4F9AD4"/>
				<stop  offset="0.2059" style="stop-color:#529ED4"/>
				<stop  offset="0.488" style="stop-color:#5AAAD6"/>
				<stop  offset="0.8127" style="stop-color:#68BEDA"/>
				<stop  offset="0.9841" style="stop-color:#70CDDD"/>
			</linearGradient>
			<path fill="url(#SVGID_1_)" stroke="#000000" stroke-miterlimit="10" d="M794.646,125.805
				c-11.499,3.413-21.025,6.213-28.93,8.751v-1.623c0-1.168-0.021-3.41-0.034-5.39c-0.087-9.606-0.1-10.89,4.521-16.921l4.945-6.46
				l0.306-0.4c2.697-3.519,4.012-5.233,4.719-8.076c0.623-2.512,0.622-5.591,0.614-11.577c-0.005-2.466,0.004,4.58,0.004-2.17
				V66.743c0.677-0.295,1.283-0.734,1.791-1.277c0.972-1.05,1.575-2.499,1.575-4.099c0-1.596-0.604-3.046-1.575-4.095
				c-0.972-1.05-2.316-1.695-3.799-1.695c-1.483,0-2.825,0.645-3.799,1.695c-0.974,1.049-1.574,2.499-1.574,4.095
				c0,1.6,0.601,3.048,1.574,4.099c0.506,0.543,1.113,0.981,1.79,1.277V81.94c0,5.218,0.005-1.655,0.011,2.17
				c0.005,5.587,0.007,8.453-0.491,10.46c-0.479,1.928-1.61,3.403-3.934,6.434l-0.307,0.399l-4.945,6.458
				c-5.543,7.242-5.531,8.715-5.433,19.714c0.01,1.154,0.023,2.466,0.023,5.358v2.935c-5.688,1.903-10.428,3.686-14.386,5.51V118.58
				c0-1.165-0.021-3.405-0.036-5.387c-0.088-9.605-0.097-10.889,4.521-16.924l4.945-6.456l0.308-0.402
				c2.696-3.518,4.013-5.229,4.719-8.073c0.624-2.517,0.621-5.591,0.611-11.583c0-2.46,0.01,4.581,0.01-2.165V52.396
				c0.674-0.297,1.282-0.735,1.786-1.282c0.976-1.046,1.577-2.495,1.577-4.097c0-1.594-0.602-3.043-1.577-4.093
				c-0.973-1.05-2.313-1.699-3.798-1.699c-1.482,0-2.826,0.648-3.801,1.699c-0.971,1.05-1.572,2.499-1.572,4.093
				c0,1.602,0.602,3.051,1.572,4.097c0.509,0.547,1.117,0.985,1.792,1.282v15.195c0,5.218,0.006-1.659,0.011,2.165
				c0.003,5.59,0.008,8.458-0.488,10.467c-0.48,1.925-1.612,3.4-3.936,6.433l-0.305,0.4l-4.951,6.457
				c-5.541,7.236-5.527,8.712-5.428,19.713c0.008,1.157,0.021,2.465,0.021,5.354v24.819c-5.664,3.124-9.306,6.533-11.635,10.973
				v-50.154c0-1.167-0.021-3.407-0.038-5.389c-0.085-9.603-0.097-10.891,4.521-16.92l4.946-6.462l0.309-0.4
				c2.699-3.519,4.012-5.234,4.717-8.076c0.626-2.512,0.622-5.588,0.614-11.578c-0.004-2.463,0.008,4.58,0.008-2.168V38.029
				c0.673-0.295,1.283-0.734,1.79-1.279c0.97-1.047,1.572-2.499,1.572-4.094c0-1.602-0.603-3.051-1.572-4.098
				c-0.974-1.051-2.318-1.697-3.798-1.697c-1.484,0-2.828,0.646-3.8,1.697c-0.973,1.047-1.576,2.497-1.576,4.098
				c0,1.596,0.604,3.047,1.576,4.094c0.506,0.545,1.113,0.984,1.788,1.279v15.196c0,5.222,0.005-1.657,0.008,2.168
				c0.009,5.589,0.013,8.455-0.487,10.462c-0.479,1.928-1.61,3.404-3.934,6.434l-0.305,0.4l-4.946,6.461
				c-5.542,7.236-5.53,8.708-5.433,19.708c0.01,1.156,0.019,2.464,0.019,5.358c0,0,0.038,87.075,0.038,100.089
				C799.405,183.002,794.646,185.277,794.646,125.805z M775.937,61.369c0-1.695,1.272-3.069,2.845-3.069s2.849,1.374,2.849,3.069
				c0,1.696-1.276,3.07-2.849,3.07S775.937,63.065,775.937,61.369z M757.577,47.016c0-1.693,1.274-3.066,2.848-3.066
				c1.57,0,2.845,1.373,2.845,3.066c0,1.697-1.274,3.071-2.845,3.071C758.852,50.087,757.577,48.713,757.577,47.016z
				 M741.881,32.653c0-1.695,1.274-3.07,2.846-3.07s2.848,1.375,2.848,3.07c0,1.694-1.276,3.069-2.848,3.069
				S741.881,34.348,741.881,32.653z"/>
			<linearGradient id="SVGID_2_" gradientUnits="userSpaceOnUse" x1="647.7539" y1="115.583" x2="714.7871" y2="115.583">
				<stop  offset="0" style="stop-color:#76C084"/>
				<stop  offset="1" style="stop-color:#A5C43D"/>
			</linearGradient>
			<path fill="url(#SVGID_2_)" stroke="#000000" stroke-miterlimit="10" d="M714.766,98.859c0.097-11,0.109-12.473-5.433-19.708
				l-4.948-6.461l-0.308-0.4c-2.321-3.03-3.451-4.506-3.931-6.434c-0.501-2.007-0.498-4.873-0.49-10.462
				c0.007-3.825,0.01,3.053,0.01-2.168V38.029c0.675-0.295,1.282-0.734,1.789-1.279c0.976-1.047,1.576-2.499,1.576-4.094
				c0-1.602-0.601-3.051-1.576-4.098c-0.973-1.051-2.315-1.697-3.797-1.697c-1.485,0-2.828,0.646-3.801,1.697
				c-0.973,1.047-1.573,2.497-1.573,4.098c0,1.596,0.601,3.047,1.573,4.094c0.507,0.545,1.114,0.984,1.79,1.279v15.196
				c0,6.748,0.01-0.294,0.005,2.168c-0.005,5.99-0.009,9.066,0.615,11.578c0.707,2.841,2.021,4.557,4.72,8.076l0.306,0.4
				l4.945,6.462c4.619,6.029,4.609,7.317,4.523,16.92c-0.019,1.981-0.036,4.222-0.036,5.389v50.864
				c-2.784-4.774-6.833-8.63-11.639-11.816V118.58c0-2.89,0.014-4.198,0.024-5.354c0.095-11.001,0.109-12.478-5.433-19.713
				l-4.946-6.457l-0.305-0.4c-2.326-3.033-3.458-4.507-3.938-6.433c-0.497-2.009-0.492-4.877-0.486-10.467
				c0.002-3.824,0.01,3.053,0.01-2.165V52.396c0.673-0.297,1.282-0.735,1.789-1.282c0.972-1.046,1.572-2.495,1.572-4.097
				c0-1.594-0.601-3.043-1.572-4.093c-0.973-1.05-2.316-1.699-3.8-1.699c-1.484,0-2.827,0.648-3.8,1.699
				c-0.971,1.05-1.574,2.499-1.574,4.093c0,1.602,0.604,3.051,1.574,4.097c0.507,0.547,1.115,0.985,1.789,1.282v15.195
				c0,6.746,0.009-0.295,0.009,2.165c-0.009,5.991-0.012,9.065,0.614,11.583c0.705,2.844,2.019,4.555,4.717,8.073l0.307,0.402
				l4.948,6.456c4.616,6.035,4.604,7.319,4.52,16.924c-0.019,1.981-0.039,4.222-0.039,5.387v22.259
				c-4.45-2.444-9.354-4.434-14.381-6.13v-1.775c0-2.893,0.01-4.204,0.019-5.358c0.101-10.999,0.113-12.473-5.429-19.714
				l-4.949-6.458l-0.305-0.399c-2.324-3.03-3.455-4.505-3.935-6.434c-0.497-2.007-0.495-4.873-0.487-10.46
				c0.005-3.825,0.011,3.047,0.011-2.17V66.743c0.674-0.295,1.281-0.734,1.789-1.277c0.972-1.05,1.572-2.499,1.572-4.099
				c0-1.596-0.601-3.046-1.572-4.095c-0.974-1.05-2.316-1.695-3.801-1.695c-1.482,0-2.825,0.645-3.798,1.695
				c-0.975,1.049-1.573,2.499-1.573,4.095c0,1.6,0.599,3.048,1.573,4.099c0.507,0.543,1.114,0.981,1.789,1.277V81.94
				c0,6.75,0.01-0.295,0.006,2.17c-0.006,5.986-0.012,9.065,0.614,11.577c0.709,2.842,2.021,4.557,4.718,8.076l0.31,0.4l4.944,6.46
				c4.62,6.031,4.608,7.314,4.521,16.921c-0.018,1.98-0.038,4.222-0.038,5.39v0.483c-10.409-3.176-20.972-5.274-28.846-7.612
				c0,59.478-4.749,57.189,66.967,78.501C714.786,195.924,714.753,100.015,714.766,98.859z M694.812,32.653
				c0-1.695,1.274-3.07,2.847-3.07c1.57,0,2.845,1.375,2.845,3.07c0,1.694-1.274,3.069-2.845,3.069
				C696.086,35.723,694.812,34.348,694.812,32.653z M681.961,50.087c-1.574,0-2.847-1.374-2.847-3.071
				c0-1.693,1.272-3.066,2.847-3.066c1.571,0,2.846,1.373,2.846,3.066C684.807,48.713,683.532,50.087,681.961,50.087z
				 M660.754,61.369c0-1.695,1.274-3.069,2.847-3.069s2.847,1.374,2.847,3.069c0,1.696-1.274,3.07-2.847,3.07
				S660.754,63.065,660.754,61.369z"/>
			<linearGradient id="SVGID_3_" gradientUnits="userSpaceOnUse" x1="711.4512" y1="46.6587" x2="730.541" y2="46.6587">
				<stop  offset="0" style="stop-color:#76C084"/>
				<stop  offset="1" style="stop-color:#A5C43D"/>
			</linearGradient>
			<path fill="url(#SVGID_3_)" stroke="#000000" stroke-miterlimit="10" d="M730.541,46.659c0-5.674-4.284-10.291-9.544-10.291
				c-5.265,0-9.546,4.617-9.546,10.291c0,5.675,4.281,10.291,9.546,10.291C726.257,56.95,730.541,52.333,730.541,46.659z
				 M720.997,53.355c-3.425,0-6.211-3.005-6.211-6.697c0-3.692,2.786-6.697,6.211-6.697c3.424,0,6.21,3.005,6.21,6.697
				C727.207,50.35,724.421,53.355,720.997,53.355z"/>
		</g>
		<linearGradient id="SVGID_4_" gradientUnits="userSpaceOnUse" x1="647.7207" y1="165.3691" x2="714.7861" y2="165.3691">
			<stop  offset="0" style="stop-color:#FFFFFF"/>
			<stop  offset="1" style="stop-color:#010101"/>
		</linearGradient>
		<path fill="url(#SVGID_4_)" stroke="#000000" stroke-miterlimit="10" d="M647.819,125.805c0,0,15.727,23.722,29.058,32.108
			c13.332,8.387,30.959,11.28,34.574,26.901c2.301,9.938,3.335,20.118,3.335,20.118s-6.673-2.722-17.08-5.952
			c-14.619-4.541-35.259-10.895-43.326-19.203c-7.532-7.757-6.625-37.438-6.625-37.438L647.819,125.805z"/>
		
			<linearGradient id="SVGID_5_" gradientUnits="userSpaceOnUse" x1="118.8994" y1="165.3691" x2="185.9648" y2="165.3691" gradientTransform="matrix(-1 0 0 1 913.5859 0)">
			<stop  offset="0" style="stop-color:#FFFFFF"/>
			<stop  offset="1" style="stop-color:#010101"/>
		</linearGradient>
		<path fill="url(#SVGID_5_)" stroke="#000000" stroke-miterlimit="10" d="M794.589,125.805c0,0-15.728,23.722-29.06,32.108
			c-13.331,8.387-30.961,11.28-34.576,26.901c-2.301,9.938-3.332,20.118-3.332,20.118s6.675-2.722,17.08-5.952
			c14.616-4.541,35.259-10.895,43.328-19.203c7.531-7.757,6.623-37.438,6.623-37.438L794.589,125.805z"/>
	</g>
	<g>
		<polygon fill="#ABB5B7" points="800.252,191.446 808.695,198.489 794.668,214.746 787.273,206.619 		"/>
		<polygon fill="#58595B" points="797.21,217.956 811.956,200.719 859.975,236.538 839.272,260.993 		"/>
	</g>
</g>
<path fill="#FFFFFF" stroke="#ABB5B7" stroke-miterlimit="10" d="M751.342,215.782"/>
<text transform="matrix(1.1262 0 0 1 24.4775 210.0996)"><tspan x="0" y="0" fill="#70BF44" font-family="'FranklinGothic-Book'" font-size="211.0677">ASIC</tspan><tspan x="408.222" y="0" font-family="'FranklinGothic-Book'" font-size="211.0677"> </tspan><tspan x="460.989" y="0" fill="#1981C1" font-family="'FranklinGothic-Book'" font-size="211.0677">J   BS</tspan></text>
<text transform="matrix(1.0411 0 0 1 22.4775 272.3516)" font-family="'MyriadPro-Regular'" font-size="48.4112">Connecting Talent with Opportunities</text>
</svg>
